<?xml version="1.0" standalone="no"?><!DOCTYPE svg PUBLIC "-//W3C//DTD SVG 1.1//EN" "http://www.w3.org/Graphics/SVG/1.1/DTD/svg11.dtd"><svg viewBox="0 0 1024 1024" version="1.1" xmlns="http://www.w3.org/2000/svg" width="21" height="21"><path d="M512 64C264.6 64 64 264.6 64 512s200.6 448 448 448 448-200.6 448-448S759.4 64 512 64zm0 820c-205.4 0-372-166.6-372-372s166.6-372 372-372 372 166.6 372 372-166.6 372-372 372zm198.4-588.1l-172.8 0c-8.8 0-16 7.2-16 16l0 16c0 8.8 7.2 16 16 16l172.8 0c8.8 0 16-7.2 16-16l0-16c0-8.8-7.2-16-16-16zm0 128l-172.8 0c-8.8 0-16 7.2-16 16l0 16c0 8.8 7.2 16 16 16l172.8 0c8.8 0 16-7.2 16-16l0-16c0-8.8-7.2-16-16-16zm0 128l-172.8 0c-8.8 0-16 7.2-16 16l0 16c0 8.8 7.2 16 16 16l172.8 0c8.8 0 16-7.2 16-16l0-16c0-8.8-7.2-16-16-16zm-280-256l-48 0c-8.8 0-16 7.2-16 16l0 16c0 8.8 7.2 16 16 16l48 0c8.8 0 16-7.2 16-16l0-16c0-8.8-7.2-16-16-16zm0 128l-48 0c-8.8 0-16 7.2-16 16l0 16c0 8.8 7.2 16 16 16l48 0c8.8 0 16-7.2 16-16l0-16c0-8.8-7.2-16-16-16zm0 128l-48 0c-8.8 0-16 7.2-16 16l0 16c0 8.8 7.2 16 16 16l48 0c8.8 0 16-7.2 16-16l0-16c0-8.8-7.2-16-16-16z" fill="#ffffff"/></svg>
